<svg class="home-image m-0 object-cover w-full" width="1725" height="1069" viewBox="0 0 1725 1069" fill="none" xmlns="http://www.w3.org/2000/svg">
<g clip-path="url(#clip0_352_156)">
<path d="M-130 820.046L15.382 844.232C57.2726 851.201 100.287 843.664 137.312 822.867C207.329 783.539 244.305 703.804 229.093 624.952L227.505 616.718C221.858 587.449 209.68 559.831 191.876 535.923L156.236 488.061C120.207 439.678 114.176 375.057 140.416 320.74C161.545 277.003 201.376 244.974 248.664 233.876L254.096 232.601C303.557 220.994 355.537 235.098 392.347 270.115C414.603 291.287 429.855 318.756 436.058 348.841L455.528 443.268C462.817 478.614 476.273 512.414 496.579 542.249C508.756 560.14 523.481 581.11 538.506 600.94C570.424 643.067 618.999 666.488 670.999 675.948L730.685 686.807C804.528 700.242 880.724 685.509 944.237 645.517L983.487 620.802C1007.67 605.572 1033.91 593.876 1061.41 586.07L1081.65 580.324C1130.15 566.557 1181.76 568.528 1229.06 585.953L1236.5 588.693C1252.96 594.759 1268.47 603.158 1282.55 613.634L1320.34 641.747C1365.12 675.063 1426.76 673.888 1470.24 638.891C1507.86 608.602 1524.17 559.026 1511.87 512.315L1502.25 475.765C1478.96 387.288 1525.44 295.359 1610.51 261.679L1628.71 254.475C1692.48 229.227 1764.69 237.918 1820.64 277.576L1856 302.633" stroke="url(#paint0_linear_352_156)" stroke-width="136" stroke-linecap="round"/>
</g>
<defs>
<linearGradient id="paint0_linear_352_156" x1="-56.2128" y1="267.65" x2="1337.16" y2="1179.74" gradientUnits="userSpaceOnUse">
<stop offset="0.176846" stop-color="#26E9AF"/>
<stop offset="0.826846" stop-color="#AF4AD4"/>
</linearGradient>
<clipPath id="clip0_352_156">
<rect width="1725" height="1069" fill="white"/>
</clipPath>
</defs>
</svg>
