<svg class="home-image" width="1805" height="656" viewBox="0 0 1805 656" fill="none" xmlns="http://www.w3.org/2000/svg">
<path d="M69 565.114L191.019 585.425C226.215 591.284 262.355 584.948 293.459 567.467V567.467C352.23 534.437 383.265 467.5 370.502 401.302L369.153 394.306C364.412 369.718 354.186 346.517 339.236 326.429L309.307 286.213C279.062 245.574 274.014 191.276 296.04 145.657V145.657C313.768 108.939 347.212 82.0208 386.906 72.7L391.443 71.6346C432.989 61.8789 476.653 73.7307 507.565 103.153V103.153C526.241 120.93 539.039 143.99 544.243 169.244L558.839 240.07C566.12 275.402 579.539 309.249 599.998 338.962C606.916 349.009 614.585 359.883 622.514 370.665C653.839 413.258 702.246 436.918 754.263 446.387L773.135 449.822C847.013 463.271 923.248 448.524 986.782 408.496L1003.66 397.86C1024.1 384.984 1046.27 375.097 1069.51 368.497L1086.27 363.735C1126.99 352.169 1170.32 353.825 1210.04 368.464L1216.28 370.764C1230.11 375.86 1243.13 382.915 1254.94 391.713L1286.64 415.309C1324.25 443.307 1376.04 442.32 1412.55 412.909V412.909C1444.12 387.477 1457.81 345.867 1447.49 306.658L1439.4 275.904C1419.84 201.569 1458.89 124.338 1530.36 96.0282L1545.52 90.0203C1599.09 68.8004 1659.75 76.1039 1706.75 109.431L1736.4 130.457" stroke="url(#paint0_linear_249_158)" stroke-width="136" stroke-linecap="round"/>
<defs>
<linearGradient id="paint0_linear_249_158" x1="130.95" y1="101.069" x2="1301.2" y2="866.663" gradientUnits="userSpaceOnUse">
<stop offset="0.176846" stop-color="#26E9AF"/>
<stop offset="0.826846" stop-color="#AF4AD4"/>
</linearGradient>
</defs>
</svg>
