<svg class="home-image" width="2199" height="846" viewBox="0 0 2199 846" fill="none" xmlns="http://www.w3.org/2000/svg">
<path d="M219.5 69L232.897 120.043C255.02 204.332 223.79 293.614 153.952 345.736V345.736C99.8608 386.105 68 449.639 68 517.134V559.974C68 596.398 79.2674 631.93 100.257 661.699L104.729 668.041C134.996 710.967 184.242 736.5 236.766 736.5V736.5C327.415 736.5 400.323 661.934 398.285 571.308L397.269 526.144C395.694 456.086 447.356 396.065 516.835 386.948V386.948C557.742 381.581 598.993 394.978 628.877 423.423V423.423C649.043 442.618 662.861 467.517 668.481 494.785L682.439 562.517C689.72 597.85 703.139 631.697 723.598 661.409C730.516 671.456 738.185 682.331 746.114 693.112C777.439 735.706 825.846 759.365 877.863 768.834L896.735 772.269C970.613 785.718 1046.85 770.972 1110.38 730.943L1127.26 720.307C1147.7 707.431 1169.87 697.544 1193.11 690.944L1209.87 686.182C1250.59 674.617 1293.92 676.272 1333.64 690.911L1339.88 693.212C1353.71 698.307 1366.73 705.362 1378.54 714.16L1410.24 737.756C1447.85 765.754 1499.64 764.767 1536.15 735.356V735.356C1567.72 709.925 1581.41 668.314 1571.09 629.106L1562.7 597.209C1543.31 523.525 1582.02 446.972 1652.86 418.911V418.911C1713.71 394.803 1783.17 412.774 1824.7 463.372L1887.62 540.032C1915.21 573.651 1957.14 592.147 2000.57 589.854V589.854C2116.27 583.748 2172.47 445.573 2093.88 360.445L2045 307.5L2026.66 287.355C1976.37 232.114 1948.5 160.099 1948.5 85.3966V69" stroke="url(#paint0_linear_247_156)" stroke-width="136" stroke-linecap="round"/>
<defs>
<linearGradient id="paint0_linear_247_156" x1="243.95" y1="405.069" x2="1414.2" y2="1170.66" gradientUnits="userSpaceOnUse">
<stop offset="0.176846" stop-color="#26E9AF"/>
<stop offset="0.826846" stop-color="#AF4AD4"/>
</linearGradient>
</defs>
</svg>
